<?xml version="1.0" encoding="iso-8859-1"?>
<!-- Generator: Adobe Illustrator 17.1.0, SVG Export Plug-In . SVG Version: 6.00 Build 0)  -->
<!DOCTYPE svg PUBLIC "-//W3C//DTD SVG 1.1//EN" "http://www.w3.org/Graphics/SVG/1.1/DTD/svg11.dtd">
<svg version="1.1" id="Capa_1" xmlns="http://www.w3.org/2000/svg" xmlns:xlink="http://www.w3.org/1999/xlink" x="0px" y="0px"
	 viewBox="0 0 458.167 458.167" style="enable-background:new 0 0 458.167 458.167;" xml:space="preserve">
<g>
	<path d="M79.587,283.356c-5.79,0-10.5,4.71-10.5,10.5s4.71,10.5,10.5,10.5s10.5-4.71,10.5-10.5S85.377,283.356,79.587,283.356z"/>
	<path d="M458.167,231.599c0-15.405-12.257-28.001-27.531-28.549c0.856-2.711,1.318-5.596,1.318-8.586
		c0-15.752-12.815-28.568-28.568-28.568H250.806c15.313-7.29,32.734-11.555,52.094-12.728c7.617-0.461,14.598-3.861,19.657-9.574
		s7.592-13.053,7.13-20.669c-0.462-7.617-3.862-14.598-9.574-19.658c-5.713-5.06-13.054-7.596-20.67-7.13
		c-70.348,4.263-124.127,38.916-155.913,100.34h-20.14v-20.582c0-5.523-4.477-10-10-10H55.785v-8.909c0-5.523-4.477-10-10-10H10
		c-5.523,0-10,4.477-10,10s4.477,10,10,10h25.785v175.097H10c-5.523,0-10,4.477-10,10s4.477,10,10,10h35.785c5.523,0,10-4.477,10-10
		v-8.909h57.605c5.523,0,10-4.477,10-10v-29.32h21.437c15.97,19.239,40.099,30.582,65.557,30.582h166.79
		c15.752,0,28.568-12.815,28.568-28.568c0-2.99-0.462-5.875-1.318-8.586c15.274-0.547,27.531-13.144,27.531-28.549
		c0-2.99-0.462-5.875-1.318-8.586C445.91,259.601,458.167,247.004,458.167,231.599z M103.39,323.176H55.785v-137.28h47.605V323.176z
		 M429.6,240.167h-26.213H298.563c-5.523,0-10,4.477-10,10s4.477,10,10,10h104.824c4.724,0,8.568,3.844,8.568,8.568
		s-3.844,8.567-8.568,8.567h-26.213h-96.703c-5.523,0-10,4.477-10,10s4.477,10,10,10h96.703c4.724,0,8.568,3.844,8.568,8.568
		s-3.844,8.568-8.568,8.568h-166.79c-21.162,0-40.331-9.648-52.592-26.472c-1.882-2.583-4.886-4.11-8.082-4.11H123.39v-67.378
		h26.319c3.837,0,7.335-2.195,9.004-5.65c28.036-58.042,77.118-90.798,141.939-94.727c2.29-0.139,4.486,0.621,6.199,2.139
		c1.713,1.518,2.733,3.611,2.871,5.896c0.139,2.284-0.621,4.485-2.138,6.199s-3.611,2.733-5.896,2.872
		c-36.19,2.193-66.692,14.034-90.66,35.194c-3.117,2.752-4.206,7.146-2.734,11.035c1.471,3.889,5.195,6.462,9.353,6.462h34.421
		c-4.816,30.693-31.429,54.248-63.443,54.248c-5.523,0-10,4.477-10,10s4.477,10,10,10c43.058,0,78.65-32.493,83.612-74.248h131.148
		c4.724,0,8.568,3.844,8.568,8.568s-3.844,8.567-8.568,8.567h-113.87c-5.523,0-10,4.477-10,10s4.477,10,10,10h113.87H429.6
		c4.724,0,8.567,3.844,8.567,8.568S434.324,240.167,429.6,240.167z"/>
</g>
<g>
</g>
<g>
</g>
<g>
</g>
<g>
</g>
<g>
</g>
<g>
</g>
<g>
</g>
<g>
</g>
<g>
</g>
<g>
</g>
<g>
</g>
<g>
</g>
<g>
</g>
<g>
</g>
<g>
</g>
</svg>
